<?xml version="1.0" encoding="UTF-8" standalone="no"?>
<!-- Created with Inkscape (http://www.inkscape.org/) -->

<svg
   width="64"
   height="64"
   viewBox="0 0 16.933333 16.933333"
   version="1.1"
   id="svg1"
   xml:space="preserve"
   inkscape:version="1.4.2 (ebf0e940d0, 2025-05-08)"
   sodipodi:docname="tick_on_disabled.svg"
   xmlns:inkscape="http://www.inkscape.org/namespaces/inkscape"
   xmlns:sodipodi="http://sodipodi.sourceforge.net/DTD/sodipodi-0.dtd"
   xmlns="http://www.w3.org/2000/svg"
   xmlns:svg="http://www.w3.org/2000/svg"><sodipodi:namedview
     id="namedview1"
     pagecolor="#ffffff"
     bordercolor="#000000"
     borderopacity="0.25"
     inkscape:showpageshadow="2"
     inkscape:pageopacity="0.0"
     inkscape:pagecheckerboard="0"
     inkscape:deskcolor="#d1d1d1"
     inkscape:document-units="px"
     inkscape:zoom="11.602469"
     inkscape:cx="26.675357"
     inkscape:cy="31.114067"
     inkscape:window-width="1920"
     inkscape:window-height="1022"
     inkscape:window-x="0"
     inkscape:window-y="0"
     inkscape:window-maximized="1"
     inkscape:current-layer="layer1" /><defs
     id="defs1" /><g
     inkscape:label="Слой 1"
     inkscape:groupmode="layer"
     id="layer1"><path
       style="fill:#b2b2b2;fill-opacity:1;stroke:#000000;stroke-width:1.33111;stroke-dasharray:none;stroke-opacity:1"
       d="M 1.2524439,1.7558157 C 0.61350439,3.227278 1.4393772,4.622101 1.4037053,6.3167229 1.3693914,7.946846 1.0297618,8.5412452 1.031604,9.2889104 c 0.00343,1.3937816 0.3564134,1.7780146 0.4171422,2.8954566 0.054659,1.005761 -0.62509305,2.241466 -0.024539,3.018147 0.8576578,1.109182 2.6472031,0.186983 4.0487318,0.147227 1.0999392,-0.03121 1.6925476,0.427678 2.551928,0.417141 1.0285925,-0.01261 2.038559,-0.34726 3.067222,-0.343529 1.362198,0.0049 2.039354,0.335903 3.386211,0.539831 0.969371,0.146772 1.281392,-1.33521 1.349578,-2.232937 0.06961,-0.91639 -0.413202,-1.731059 -0.417143,-2.65008 C 15.406185,10.01057 15.903713,8.9107877 15.90149,7.8411823 15.899265,6.7873294 15.582888,5.8511926 15.533425,4.7984988 15.482303,3.7103833 16.291628,2.4845543 15.582504,1.6576644 14.826111,0.77566507 13.770832,1.5146038 12.564355,1.5595134 11.437435,1.6014615 11.066512,1.0201129 9.4971334,0.99514474 8.486668,0.9790689 7.2526889,1.5627767 6.037308,1.510438 3.235935,1.3898005 1.7968437,0.50207612 1.2524439,1.7558157 Z"
       id="path1"
       sodipodi:nodetypes="ssssssssssssssssss" /><path
       style="fill:none;stroke:#000000;stroke-width:1.58749997;stroke-linecap:round;stroke-linejoin:round;stroke-opacity:1;stroke-dasharray:none"
       d="M 3.7854731,8.9163852 7.6621621,13.682432 13.180744,3.808277"
       id="path2"
       sodipodi:nodetypes="ccc" /></g></svg>
